<?xml version="1.0" encoding="utf-8"?>
<!-- Generator: Adobe Illustrator 27.9.0, SVG Export Plug-In . SVG Version: 6.00 Build 0)  -->
<svg version="1.1" id="圖層_1" xmlns="http://www.w3.org/2000/svg" xmlns:xlink="http://www.w3.org/1999/xlink" x="0px" y="0px"
	 viewBox="0 0 63.1 64.6" style="enable-background:new 0 0 63.1 64.6;" xml:space="preserve">
<style type="text/css">
	.st0{fill:#D02F4A;}
	.st1{fill:none;stroke:#D02F4A;stroke-width:3;stroke-linejoin:round;}
</style>
<g>
	<path class="st0" d="M61.5,11.6h-5.4v1.5v1.5H60v46.8h-57V14.6h3.9v-1.5v-1.5H1.6c-0.8,0-1.5,0.7-1.5,1.5v49.8
		c0,0.8,0.7,1.5,1.5,1.5h60c0.8,0,1.5-0.7,1.5-1.5V13.1C63,12.3,62.4,11.6,61.5,11.6z"/>
	<path class="st0" d="M53.2,48.9c0,2.5-2,4.5-4.5,4.5H14.4c-2.5,0-4.5-2-4.5-4.5V11.6h-3v37.3c0,4.1,3.4,7.5,7.5,7.5h34.3
		c4.1,0,7.5-3.4,7.5-7.5V11.6h-3V48.9z"/>
</g>
<rect x="2.4" y="1.6" class="st1" width="58.3" height="7.3"/>
</svg>
